<?xml version="1.0" encoding="UTF-8" standalone="no"?><!DOCTYPE svg PUBLIC "-//W3C//DTD SVG 1.1//EN" "http://www.w3.org/Graphics/SVG/1.1/DTD/svg11.dtd"><!-- Generated by graphviz version 2.40.1 (20161225.0304)
 --><!-- Title: G Pages: 1 --><svg xmlns="http://www.w3.org/2000/svg" xmlns:xlink="http://www.w3.org/1999/xlink" width="1504pt" height="605pt" viewBox="0.00 0.00 1504.00 604.80">
<g id="graph0" class="graph" transform="scale(1 1) rotate(0) translate(4 600.8)">
<title>G</title>
<polygon fill="#ffffff" stroke="transparent" points="-4,4 -4,-600.8 1500,-600.8 1500,4 -4,4"/>
<g id="clust1" class="cluster">
<title>cluster0</title>
<polygon fill="none" stroke="#000000" points="8,-80 8,-588.8 510,-588.8 510,-80 8,-80"/>
<text text-anchor="middle" x="259" y="-572.2" font-family="Times,serif" font-size="14.00" fill="#000000">gcd(a: integer, b: integer, ): integer</text>
</g>
<g id="clust2" class="cluster">
<title>cluster29</title>
<polygon fill="none" stroke="#000000" points="518,-152 518,-588.8 886,-588.8 886,-152 518,-152"/>
<text text-anchor="middle" x="702" y="-572.2" font-family="Times,serif" font-size="14.00" fill="#000000">factorial(a: integer, ): integer</text>
</g>
<g id="clust3" class="cluster">
<title>cluster50</title>
<polygon fill="none" stroke="#000000" points="894,-8 894,-588.8 1488,-588.8 1488,-8 894,-8"/>
<text text-anchor="middle" x="1191" y="-572.2" font-family="Times,serif" font-size="14.00" fill="#000000">sum(n: integer, ): integer</text>
</g>
<!-- 1 -->
<g id="node1" class="node">
<title>1</title>
<ellipse fill="none" stroke="#000000" cx="264" cy="-538" rx="32.4846" ry="18"/>
<text text-anchor="middle" x="264" y="-533.8" font-family="Times,serif" font-size="14.00" fill="#000000">block</text>
</g>
<!-- 2 -->
<g id="node2" class="node">
<title>2</title>
<ellipse fill="#ffb6c1" stroke="#000000" cx="190" cy="-466" rx="32.4808" ry="18"/>
<text text-anchor="middle" x="190" y="-461.8" font-family="Times,serif" font-size="14.00" fill="#000000">while</text>
</g>
<!-- 1&#45;&gt;2 -->
<g id="edge1" class="edge">
<title>1-&gt;2</title>
<path fill="none" stroke="#000000" d="M247.577,-522.0209C237.5441,-512.2591 224.5514,-499.6176 213.448,-488.8143"/>
<polygon fill="#000000" stroke="#000000" points="215.7305,-486.1518 206.1225,-481.6867 210.849,-491.1689 215.7305,-486.1518"/>
</g>
<!-- 21 -->
<g id="node21" class="node">
<title>21</title>
<ellipse fill="#ffb6c1" stroke="#000000" cx="338" cy="-466" rx="27" ry="18"/>
<text text-anchor="middle" x="338" y="-461.8" font-family="Times,serif" font-size="14.00" fill="#000000">if</text>
</g>
<!-- 1&#45;&gt;21 -->
<g id="edge20" class="edge">
<title>1-&gt;21</title>
<path fill="none" stroke="#000000" d="M280.423,-522.0209C290.6635,-512.0571 303.9875,-499.0932 315.2387,-488.1461"/>
<polygon fill="#000000" stroke="#000000" points="317.9069,-490.4334 322.6335,-480.9512 313.0254,-485.4163 317.9069,-490.4334"/>
</g>
<!-- 3 -->
<g id="node3" class="node">
<title>3</title>
<ellipse fill="#c0c0c0" stroke="#000000" cx="113" cy="-394" rx="27" ry="18"/>
<text text-anchor="middle" x="113" y="-389.8" font-family="Times,serif" font-size="14.00" fill="#000000">&lt;&gt;</text>
</g>
<!-- 2&#45;&gt;3 -->
<g id="edge2" class="edge">
<title>2-&gt;3</title>
<path fill="none" stroke="#000000" d="M173.2921,-450.3771C162.4797,-440.2667 148.2481,-426.9592 136.3269,-415.8122"/>
<polygon fill="#000000" stroke="#000000" points="138.5806,-413.1278 128.8859,-408.8543 133.7996,-418.2408 138.5806,-413.1278"/>
</g>
<!-- 4 -->
<g id="node4" class="node">
<title>4</title>
<ellipse fill="none" stroke="#000000" cx="190" cy="-394" rx="32.4846" ry="18"/>
<text text-anchor="middle" x="190" y="-389.8" font-family="Times,serif" font-size="14.00" fill="#000000">block</text>
</g>
<!-- 2&#45;&gt;4 -->
<g id="edge3" class="edge">
<title>2-&gt;4</title>
<path fill="none" stroke="#000000" d="M190,-447.8314C190,-440.131 190,-430.9743 190,-422.4166"/>
<polygon fill="#000000" stroke="#000000" points="193.5001,-422.4132 190,-412.4133 186.5001,-422.4133 193.5001,-422.4132"/>
</g>
<!-- 5 -->
<g id="node5" class="node">
<title>5</title>
<ellipse fill="#c0c0c0" stroke="#000000" cx="43" cy="-322" rx="27" ry="18"/>
<text text-anchor="middle" x="43" y="-317.8" font-family="Times,serif" font-size="14.00" fill="#000000">*</text>
</g>
<!-- 3&#45;&gt;5 -->
<g id="edge4" class="edge">
<title>3-&gt;5</title>
<path fill="none" stroke="#000000" d="M98.1548,-378.7307C88.5029,-368.803 75.749,-355.6847 64.9369,-344.5637"/>
<polygon fill="#000000" stroke="#000000" points="67.3041,-341.9775 57.8238,-337.2473 62.2851,-346.8571 67.3041,-341.9775"/>
</g>
<!-- 6 -->
<g id="node6" class="node">
<title>6</title>
<ellipse fill="#add8e6" stroke="#000000" cx="115" cy="-322" rx="27" ry="18"/>
<text text-anchor="middle" x="115" y="-317.8" font-family="Times,serif" font-size="14.00" fill="#000000">0</text>
</g>
<!-- 3&#45;&gt;6 -->
<g id="edge5" class="edge">
<title>3-&gt;6</title>
<path fill="none" stroke="#000000" d="M113.5047,-375.8314C113.7186,-368.131 113.9729,-358.9743 114.2106,-350.4166"/>
<polygon fill="#000000" stroke="#000000" points="117.7094,-350.5066 114.4885,-340.4133 110.7121,-350.3122 117.7094,-350.5066"/>
</g>
<!-- 9 -->
<g id="node9" class="node">
<title>9</title>
<ellipse fill="#ffb6c1" stroke="#000000" cx="187" cy="-322" rx="27" ry="18"/>
<text text-anchor="middle" x="187" y="-317.8" font-family="Times,serif" font-size="14.00" fill="#000000">if</text>
</g>
<!-- 4&#45;&gt;9 -->
<g id="edge8" class="edge">
<title>4-&gt;9</title>
<path fill="none" stroke="#000000" d="M189.243,-375.8314C188.9221,-368.131 188.5406,-358.9743 188.184,-350.4166"/>
<polygon fill="#000000" stroke="#000000" points="191.6806,-350.2589 187.7672,-340.4133 184.6867,-350.5503 191.6806,-350.2589"/>
</g>
<!-- 7 -->
<g id="node7" class="node">
<title>7</title>
<ellipse fill="#c1ffc1" stroke="#000000" cx="43" cy="-250" rx="27" ry="18"/>
<text text-anchor="middle" x="43" y="-245.8" font-family="Times,serif" font-size="14.00" fill="#000000">a</text>
</g>
<!-- 5&#45;&gt;7 -->
<g id="edge6" class="edge">
<title>5-&gt;7</title>
<path fill="none" stroke="#000000" d="M43,-303.8314C43,-296.131 43,-286.9743 43,-278.4166"/>
<polygon fill="#000000" stroke="#000000" points="46.5001,-278.4132 43,-268.4133 39.5001,-278.4133 46.5001,-278.4132"/>
</g>
<!-- 8 -->
<g id="node8" class="node">
<title>8</title>
<ellipse fill="#c1ffc1" stroke="#000000" cx="115" cy="-250" rx="27" ry="18"/>
<text text-anchor="middle" x="115" y="-245.8" font-family="Times,serif" font-size="14.00" fill="#000000">b</text>
</g>
<!-- 5&#45;&gt;8 -->
<g id="edge7" class="edge">
<title>5-&gt;8</title>
<path fill="none" stroke="#000000" d="M58.2693,-306.7307C68.197,-296.803 81.3153,-283.6847 92.4363,-272.5637"/>
<polygon fill="#000000" stroke="#000000" points="95.1564,-274.7933 99.7527,-265.2473 90.2067,-269.8436 95.1564,-274.7933"/>
</g>
<!-- 10 -->
<g id="node10" class="node">
<title>10</title>
<ellipse fill="#c0c0c0" stroke="#000000" cx="187" cy="-250" rx="27" ry="18"/>
<text text-anchor="middle" x="187" y="-245.8" font-family="Times,serif" font-size="14.00" fill="#000000">&gt;</text>
</g>
<!-- 9&#45;&gt;10 -->
<g id="edge9" class="edge">
<title>9-&gt;10</title>
<path fill="none" stroke="#000000" d="M187,-303.8314C187,-296.131 187,-286.9743 187,-278.4166"/>
<polygon fill="#000000" stroke="#000000" points="190.5001,-278.4132 187,-268.4133 183.5001,-278.4133 190.5001,-278.4132"/>
</g>
<!-- 11 -->
<g id="node11" class="node">
<title>11</title>
<ellipse fill="none" stroke="#000000" cx="259" cy="-250" rx="27" ry="18"/>
<text text-anchor="middle" x="259" y="-245.8" font-family="Times,serif" font-size="14.00" fill="#000000">a = </text>
</g>
<!-- 9&#45;&gt;11 -->
<g id="edge10" class="edge">
<title>9-&gt;11</title>
<path fill="none" stroke="#000000" d="M202.2693,-306.7307C212.197,-296.803 225.3153,-283.6847 236.4363,-272.5637"/>
<polygon fill="#000000" stroke="#000000" points="239.1564,-274.7933 243.7527,-265.2473 234.2067,-269.8436 239.1564,-274.7933"/>
</g>
<!-- 17 -->
<g id="node17" class="node">
<title>17</title>
<ellipse fill="none" stroke="#000000" cx="331" cy="-250" rx="27" ry="18"/>
<text text-anchor="middle" x="331" y="-245.8" font-family="Times,serif" font-size="14.00" fill="#000000">b = </text>
</g>
<!-- 9&#45;&gt;17 -->
<g id="edge16" class="edge">
<title>9-&gt;17</title>
<path fill="none" stroke="#000000" d="M208.8705,-311.0647C233.2222,-298.8889 272.762,-279.119 300.2285,-265.3858"/>
<polygon fill="#000000" stroke="#000000" points="302.0165,-268.4049 309.3955,-260.8022 298.886,-262.1439 302.0165,-268.4049"/>
</g>
<!-- 12 -->
<g id="node12" class="node">
<title>12</title>
<ellipse fill="#c1ffc1" stroke="#000000" cx="115" cy="-178" rx="27" ry="18"/>
<text text-anchor="middle" x="115" y="-173.8" font-family="Times,serif" font-size="14.00" fill="#000000">a</text>
</g>
<!-- 10&#45;&gt;12 -->
<g id="edge11" class="edge">
<title>10-&gt;12</title>
<path fill="none" stroke="#000000" d="M171.7307,-234.7307C161.803,-224.803 148.6847,-211.6847 137.5637,-200.5637"/>
<polygon fill="#000000" stroke="#000000" points="139.7933,-197.8436 130.2473,-193.2473 134.8436,-202.7933 139.7933,-197.8436"/>
</g>
<!-- 13 -->
<g id="node13" class="node">
<title>13</title>
<ellipse fill="#c1ffc1" stroke="#000000" cx="187" cy="-178" rx="27" ry="18"/>
<text text-anchor="middle" x="187" y="-173.8" font-family="Times,serif" font-size="14.00" fill="#000000">b</text>
</g>
<!-- 10&#45;&gt;13 -->
<g id="edge12" class="edge">
<title>10-&gt;13</title>
<path fill="none" stroke="#000000" d="M187,-231.8314C187,-224.131 187,-214.9743 187,-206.4166"/>
<polygon fill="#000000" stroke="#000000" points="190.5001,-206.4132 187,-196.4133 183.5001,-206.4133 190.5001,-206.4132"/>
</g>
<!-- 14 -->
<g id="node14" class="node">
<title>14</title>
<ellipse fill="#c0c0c0" stroke="#000000" cx="259" cy="-178" rx="27" ry="18"/>
<text text-anchor="middle" x="259" y="-173.8" font-family="Times,serif" font-size="14.00" fill="#000000">-</text>
</g>
<!-- 11&#45;&gt;14 -->
<g id="edge13" class="edge">
<title>11-&gt;14</title>
<path fill="none" stroke="#000000" d="M259,-231.8314C259,-224.131 259,-214.9743 259,-206.4166"/>
<polygon fill="#000000" stroke="#000000" points="262.5001,-206.4132 259,-196.4133 255.5001,-206.4133 262.5001,-206.4132"/>
</g>
<!-- 15 -->
<g id="node15" class="node">
<title>15</title>
<ellipse fill="#c1ffc1" stroke="#000000" cx="187" cy="-106" rx="27" ry="18"/>
<text text-anchor="middle" x="187" y="-101.8" font-family="Times,serif" font-size="14.00" fill="#000000">a</text>
</g>
<!-- 14&#45;&gt;15 -->
<g id="edge14" class="edge">
<title>14-&gt;15</title>
<path fill="none" stroke="#000000" d="M243.7307,-162.7307C233.803,-152.803 220.6847,-139.6847 209.5637,-128.5637"/>
<polygon fill="#000000" stroke="#000000" points="211.7933,-125.8436 202.2473,-121.2473 206.8436,-130.7933 211.7933,-125.8436"/>
</g>
<!-- 16 -->
<g id="node16" class="node">
<title>16</title>
<ellipse fill="#c1ffc1" stroke="#000000" cx="259" cy="-106" rx="27" ry="18"/>
<text text-anchor="middle" x="259" y="-101.8" font-family="Times,serif" font-size="14.00" fill="#000000">b</text>
</g>
<!-- 14&#45;&gt;16 -->
<g id="edge15" class="edge">
<title>14-&gt;16</title>
<path fill="none" stroke="#000000" d="M259,-159.8314C259,-152.131 259,-142.9743 259,-134.4166"/>
<polygon fill="#000000" stroke="#000000" points="262.5001,-134.4132 259,-124.4133 255.5001,-134.4133 262.5001,-134.4132"/>
</g>
<!-- 18 -->
<g id="node18" class="node">
<title>18</title>
<ellipse fill="#c0c0c0" stroke="#000000" cx="331" cy="-178" rx="27" ry="18"/>
<text text-anchor="middle" x="331" y="-173.8" font-family="Times,serif" font-size="14.00" fill="#000000">-</text>
</g>
<!-- 17&#45;&gt;18 -->
<g id="edge17" class="edge">
<title>17-&gt;18</title>
<path fill="none" stroke="#000000" d="M331,-231.8314C331,-224.131 331,-214.9743 331,-206.4166"/>
<polygon fill="#000000" stroke="#000000" points="334.5001,-206.4132 331,-196.4133 327.5001,-206.4133 334.5001,-206.4132"/>
</g>
<!-- 19 -->
<g id="node19" class="node">
<title>19</title>
<ellipse fill="#c1ffc1" stroke="#000000" cx="331" cy="-106" rx="27" ry="18"/>
<text text-anchor="middle" x="331" y="-101.8" font-family="Times,serif" font-size="14.00" fill="#000000">b</text>
</g>
<!-- 18&#45;&gt;19 -->
<g id="edge18" class="edge">
<title>18-&gt;19</title>
<path fill="none" stroke="#000000" d="M331,-159.8314C331,-152.131 331,-142.9743 331,-134.4166"/>
<polygon fill="#000000" stroke="#000000" points="334.5001,-134.4132 331,-124.4133 327.5001,-134.4133 334.5001,-134.4132"/>
</g>
<!-- 20 -->
<g id="node20" class="node">
<title>20</title>
<ellipse fill="#c1ffc1" stroke="#000000" cx="403" cy="-106" rx="27" ry="18"/>
<text text-anchor="middle" x="403" y="-101.8" font-family="Times,serif" font-size="14.00" fill="#000000">a</text>
</g>
<!-- 18&#45;&gt;20 -->
<g id="edge19" class="edge">
<title>18-&gt;20</title>
<path fill="none" stroke="#000000" d="M346.2693,-162.7307C356.197,-152.803 369.3153,-139.6847 380.4363,-128.5637"/>
<polygon fill="#000000" stroke="#000000" points="383.1564,-130.7933 387.7527,-121.2473 378.2067,-125.8436 383.1564,-130.7933"/>
</g>
<!-- 22 -->
<g id="node22" class="node">
<title>22</title>
<ellipse fill="#c0c0c0" stroke="#000000" cx="298" cy="-394" rx="27" ry="18"/>
<text text-anchor="middle" x="298" y="-389.8" font-family="Times,serif" font-size="14.00" fill="#000000">=</text>
</g>
<!-- 21&#45;&gt;22 -->
<g id="edge21" class="edge">
<title>21-&gt;22</title>
<path fill="none" stroke="#000000" d="M328.5206,-448.937C323.6885,-440.2393 317.7111,-429.4799 312.3304,-419.7948"/>
<polygon fill="#000000" stroke="#000000" points="315.3274,-417.9823 307.4114,-410.9405 309.2083,-421.3819 315.3274,-417.9823"/>
</g>
<!-- 23 -->
<g id="node23" class="node">
<title>23</title>
<ellipse fill="none" stroke="#000000" cx="378" cy="-394" rx="35.0101" ry="18"/>
<text text-anchor="middle" x="378" y="-389.8" font-family="Times,serif" font-size="14.00" fill="#000000">gcd = </text>
</g>
<!-- 21&#45;&gt;23 -->
<g id="edge22" class="edge">
<title>21-&gt;23</title>
<path fill="none" stroke="#000000" d="M347.4794,-448.937C352.2415,-440.3654 358.1159,-429.7914 363.4353,-420.2165"/>
<polygon fill="#000000" stroke="#000000" points="366.5138,-421.882 368.3107,-411.4407 360.3947,-418.4825 366.5138,-421.882"/>
</g>
<!-- 27 -->
<g id="node27" class="node">
<title>27</title>
<ellipse fill="none" stroke="#000000" cx="467" cy="-394" rx="35.0101" ry="18"/>
<text text-anchor="middle" x="467" y="-389.8" font-family="Times,serif" font-size="14.00" fill="#000000">gcd = </text>
</g>
<!-- 21&#45;&gt;27 -->
<g id="edge26" class="edge">
<title>21-&gt;27</title>
<path fill="none" stroke="#000000" d="M358.7261,-454.432C378.9719,-443.132 410.1123,-425.7513 433.8091,-412.5252"/>
<polygon fill="#000000" stroke="#000000" points="435.7832,-415.4316 442.8094,-407.5017 432.3716,-409.3192 435.7832,-415.4316"/>
</g>
<!-- 24 -->
<g id="node24" class="node">
<title>24</title>
<ellipse fill="#c1ffc1" stroke="#000000" cx="259" cy="-322" rx="27" ry="18"/>
<text text-anchor="middle" x="259" y="-317.8" font-family="Times,serif" font-size="14.00" fill="#000000">a</text>
</g>
<!-- 22&#45;&gt;24 -->
<g id="edge23" class="edge">
<title>22-&gt;24</title>
<path fill="none" stroke="#000000" d="M288.7575,-376.937C284.0463,-368.2393 278.2183,-357.4799 272.9722,-347.7948"/>
<polygon fill="#000000" stroke="#000000" points="276.0165,-346.0664 268.1761,-338.9405 269.8615,-349.4005 276.0165,-346.0664"/>
</g>
<!-- 25 -->
<g id="node25" class="node">
<title>25</title>
<ellipse fill="#add8e6" stroke="#000000" cx="331" cy="-322" rx="27" ry="18"/>
<text text-anchor="middle" x="331" y="-317.8" font-family="Times,serif" font-size="14.00" fill="#000000">0</text>
</g>
<!-- 22&#45;&gt;25 -->
<g id="edge24" class="edge">
<title>22-&gt;25</title>
<path fill="none" stroke="#000000" d="M305.9884,-376.5708C309.8392,-368.1691 314.5417,-357.9091 318.8256,-348.5623"/>
<polygon fill="#000000" stroke="#000000" points="322.1003,-349.8177 323.0852,-339.2687 315.7369,-346.901 322.1003,-349.8177"/>
</g>
<!-- 26 -->
<g id="node26" class="node">
<title>26</title>
<ellipse fill="#c1ffc1" stroke="#000000" cx="403" cy="-322" rx="27" ry="18"/>
<text text-anchor="middle" x="403" y="-317.8" font-family="Times,serif" font-size="14.00" fill="#000000">b</text>
</g>
<!-- 23&#45;&gt;26 -->
<g id="edge25" class="edge">
<title>23-&gt;26</title>
<path fill="none" stroke="#000000" d="M384.1798,-376.2022C386.9953,-368.0936 390.3913,-358.3129 393.5191,-349.3049"/>
<polygon fill="#000000" stroke="#000000" points="396.9175,-350.1878 396.8913,-339.593 390.3048,-347.8917 396.9175,-350.1878"/>
</g>
<!-- 28 -->
<g id="node28" class="node">
<title>28</title>
<ellipse fill="#c1ffc1" stroke="#000000" cx="475" cy="-322" rx="27" ry="18"/>
<text text-anchor="middle" x="475" y="-317.8" font-family="Times,serif" font-size="14.00" fill="#000000">a</text>
</g>
<!-- 27&#45;&gt;28 -->
<g id="edge27" class="edge">
<title>27-&gt;28</title>
<path fill="none" stroke="#000000" d="M469.0187,-375.8314C469.8743,-368.131 470.8917,-358.9743 471.8426,-350.4166"/>
<polygon fill="#000000" stroke="#000000" points="475.3283,-350.7386 472.9541,-340.4133 468.3711,-349.9656 475.3283,-350.7386"/>
</g>
<!-- 30 -->
<g id="node29" class="node">
<title>30</title>
<ellipse fill="none" stroke="#000000" cx="681" cy="-538" rx="32.4846" ry="18"/>
<text text-anchor="middle" x="681" y="-533.8" font-family="Times,serif" font-size="14.00" fill="#000000">block</text>
</g>
<!-- 31 -->
<g id="node30" class="node">
<title>31</title>
<ellipse fill="none" stroke="#000000" cx="562" cy="-466" rx="35.5662" ry="18"/>
<text text-anchor="middle" x="562" y="-461.8" font-family="Times,serif" font-size="14.00" fill="#000000">fact = </text>
</g>
<!-- 30&#45;&gt;31 -->
<g id="edge28" class="edge">
<title>30-&gt;31</title>
<path fill="none" stroke="#000000" d="M658.8959,-524.6261C640.6282,-513.5734 614.4517,-497.7355 593.9101,-485.3069"/>
<polygon fill="#000000" stroke="#000000" points="595.5725,-482.222 585.2048,-480.0399 591.9488,-488.2111 595.5725,-482.222"/>
</g>
<!-- 33 -->
<g id="node32" class="node">
<title>33</title>
<ellipse fill="none" stroke="#000000" cx="643" cy="-466" rx="27" ry="18"/>
<text text-anchor="middle" x="643" y="-461.8" font-family="Times,serif" font-size="14.00" fill="#000000">k = </text>
</g>
<!-- 30&#45;&gt;33 -->
<g id="edge30" class="edge">
<title>30-&gt;33</title>
<path fill="none" stroke="#000000" d="M671.8013,-520.5708C667.3203,-512.0807 661.8379,-501.6929 656.8634,-492.2674"/>
<polygon fill="#000000" stroke="#000000" points="659.877,-490.4789 652.114,-483.2687 653.6863,-493.7462 659.877,-490.4789"/>
</g>
<!-- 35 -->
<g id="node34" class="node">
<title>35</title>
<ellipse fill="#ffb6c1" stroke="#000000" cx="720" cy="-466" rx="32.4808" ry="18"/>
<text text-anchor="middle" x="720" y="-461.8" font-family="Times,serif" font-size="14.00" fill="#000000">while</text>
</g>
<!-- 30&#45;&gt;35 -->
<g id="edge32" class="edge">
<title>30-&gt;35</title>
<path fill="none" stroke="#000000" d="M690.4408,-520.5708C695.0396,-512.0807 700.6664,-501.6929 705.7718,-492.2674"/>
<polygon fill="#000000" stroke="#000000" points="708.9608,-493.7286 710.6461,-483.2687 702.8057,-490.3946 708.9608,-493.7286"/>
</g>
<!-- 48 -->
<g id="node47" class="node">
<title>48</title>
<ellipse fill="none" stroke="#000000" cx="824" cy="-466" rx="53.4595" ry="18"/>
<text text-anchor="middle" x="824" y="-461.8" font-family="Times,serif" font-size="14.00" fill="#000000">factorial = </text>
</g>
<!-- 30&#45;&gt;48 -->
<g id="edge45" class="edge">
<title>30-&gt;48</title>
<path fill="none" stroke="#000000" d="M705.258,-525.7862C727.1165,-514.7805 759.6373,-498.4064 785.121,-485.5755"/>
<polygon fill="#000000" stroke="#000000" points="786.8008,-488.6483 794.1585,-481.0251 783.6528,-482.3961 786.8008,-488.6483"/>
</g>
<!-- 32 -->
<g id="node31" class="node">
<title>32</title>
<ellipse fill="#add8e6" stroke="#000000" cx="553" cy="-394" rx="27" ry="18"/>
<text text-anchor="middle" x="553" y="-389.8" font-family="Times,serif" font-size="14.00" fill="#000000">1</text>
</g>
<!-- 31&#45;&gt;32 -->
<g id="edge29" class="edge">
<title>31-&gt;32</title>
<path fill="none" stroke="#000000" d="M559.7289,-447.8314C558.7664,-440.131 557.6218,-430.9743 556.5521,-422.4166"/>
<polygon fill="#000000" stroke="#000000" points="560.0151,-421.9019 555.3017,-412.4133 553.0691,-422.7702 560.0151,-421.9019"/>
</g>
<!-- 34 -->
<g id="node33" class="node">
<title>34</title>
<ellipse fill="#add8e6" stroke="#000000" cx="625" cy="-394" rx="27" ry="18"/>
<text text-anchor="middle" x="625" y="-389.8" font-family="Times,serif" font-size="14.00" fill="#000000">2</text>
</g>
<!-- 33&#45;&gt;34 -->
<g id="edge31" class="edge">
<title>33-&gt;34</title>
<path fill="none" stroke="#000000" d="M638.5506,-448.2022C636.5602,-440.2406 634.1668,-430.6671 631.9489,-421.7957"/>
<polygon fill="#000000" stroke="#000000" points="635.2816,-420.6951 629.4606,-411.8425 628.4906,-422.3929 635.2816,-420.6951"/>
</g>
<!-- 36 -->
<g id="node35" class="node">
<title>36</title>
<ellipse fill="#c0c0c0" stroke="#000000" cx="697" cy="-394" rx="27" ry="18"/>
<text text-anchor="middle" x="697" y="-389.8" font-family="Times,serif" font-size="14.00" fill="#000000">&lt;=</text>
</g>
<!-- 35&#45;&gt;36 -->
<g id="edge33" class="edge">
<title>35-&gt;36</title>
<path fill="none" stroke="#000000" d="M714.3146,-448.2022C711.7437,-440.1541 708.6466,-430.4588 705.7868,-421.5067"/>
<polygon fill="#000000" stroke="#000000" points="709.0768,-420.3033 702.6997,-411.8425 702.4087,-422.4334 709.0768,-420.3033"/>
</g>
<!-- 37 -->
<g id="node36" class="node">
<title>37</title>
<ellipse fill="none" stroke="#000000" cx="774" cy="-394" rx="32.4846" ry="18"/>
<text text-anchor="middle" x="774" y="-389.8" font-family="Times,serif" font-size="14.00" fill="#000000">block</text>
</g>
<!-- 35&#45;&gt;37 -->
<g id="edge34" class="edge">
<title>35-&gt;37</title>
<path fill="none" stroke="#000000" d="M732.5244,-449.3008C739.2425,-440.3433 747.6582,-429.1223 755.1501,-419.1331"/>
<polygon fill="#000000" stroke="#000000" points="757.9685,-421.2087 761.1685,-411.1086 752.3685,-417.0086 757.9685,-421.2087"/>
</g>
<!-- 38 -->
<g id="node37" class="node">
<title>38</title>
<ellipse fill="#c1ffc1" stroke="#000000" cx="617" cy="-322" rx="27" ry="18"/>
<text text-anchor="middle" x="617" y="-317.8" font-family="Times,serif" font-size="14.00" fill="#000000">k</text>
</g>
<!-- 36&#45;&gt;38 -->
<g id="edge35" class="edge">
<title>36-&gt;38</title>
<path fill="none" stroke="#000000" d="M680.8108,-379.4297C669.3167,-369.0851 653.6985,-355.0286 640.7907,-343.4116"/>
<polygon fill="#000000" stroke="#000000" points="642.9395,-340.6367 633.1651,-336.5486 638.2567,-345.8398 642.9395,-340.6367"/>
</g>
<!-- 39 -->
<g id="node38" class="node">
<title>39</title>
<ellipse fill="#c1ffc1" stroke="#000000" cx="689" cy="-322" rx="27" ry="18"/>
<text text-anchor="middle" x="689" y="-317.8" font-family="Times,serif" font-size="14.00" fill="#000000">a</text>
</g>
<!-- 36&#45;&gt;39 -->
<g id="edge36" class="edge">
<title>36-&gt;39</title>
<path fill="none" stroke="#000000" d="M694.9813,-375.8314C694.1257,-368.131 693.1083,-358.9743 692.1574,-350.4166"/>
<polygon fill="#000000" stroke="#000000" points="695.6289,-349.9656 691.0459,-340.4133 688.6717,-350.7386 695.6289,-349.9656"/>
</g>
<!-- 40 -->
<g id="node39" class="node">
<title>40</title>
<ellipse fill="none" stroke="#000000" cx="770" cy="-322" rx="35.5662" ry="18"/>
<text text-anchor="middle" x="770" y="-317.8" font-family="Times,serif" font-size="14.00" fill="#000000">fact = </text>
</g>
<!-- 37&#45;&gt;40 -->
<g id="edge37" class="edge">
<title>37-&gt;40</title>
<path fill="none" stroke="#000000" d="M772.9906,-375.8314C772.5628,-368.131 772.0541,-358.9743 771.5787,-350.4166"/>
<polygon fill="#000000" stroke="#000000" points="775.0724,-350.2037 771.023,-340.4133 768.0831,-350.592 775.0724,-350.2037"/>
</g>
<!-- 44 -->
<g id="node43" class="node">
<title>44</title>
<ellipse fill="none" stroke="#000000" cx="851" cy="-322" rx="27" ry="18"/>
<text text-anchor="middle" x="851" y="-317.8" font-family="Times,serif" font-size="14.00" fill="#000000">k = </text>
</g>
<!-- 37&#45;&gt;44 -->
<g id="edge41" class="edge">
<title>37-&gt;44</title>
<path fill="none" stroke="#000000" d="M790.7079,-378.3771C801.5203,-368.2667 815.7519,-354.9592 827.6731,-343.8122"/>
<polygon fill="#000000" stroke="#000000" points="830.2004,-346.2408 835.1141,-336.8543 825.4194,-341.1278 830.2004,-346.2408"/>
</g>
<!-- 41 -->
<g id="node40" class="node">
<title>41</title>
<ellipse fill="#c0c0c0" stroke="#000000" cx="707" cy="-250" rx="27" ry="18"/>
<text text-anchor="middle" x="707" y="-245.8" font-family="Times,serif" font-size="14.00" fill="#000000">*</text>
</g>
<!-- 40&#45;&gt;41 -->
<g id="edge38" class="edge">
<title>40-&gt;41</title>
<path fill="none" stroke="#000000" d="M755.3882,-305.3008C747.046,-295.7669 736.4603,-283.6689 727.3184,-273.221"/>
<polygon fill="#000000" stroke="#000000" points="729.8892,-270.8439 720.6701,-265.6229 724.6211,-275.4535 729.8892,-270.8439"/>
</g>
<!-- 42 -->
<g id="node41" class="node">
<title>42</title>
<ellipse fill="#c1ffc1" stroke="#000000" cx="635" cy="-178" rx="27" ry="18"/>
<text text-anchor="middle" x="635" y="-173.8" font-family="Times,serif" font-size="14.00" fill="#000000">fact</text>
</g>
<!-- 41&#45;&gt;42 -->
<g id="edge39" class="edge">
<title>41-&gt;42</title>
<path fill="none" stroke="#000000" d="M691.7307,-234.7307C681.803,-224.803 668.6847,-211.6847 657.5637,-200.5637"/>
<polygon fill="#000000" stroke="#000000" points="659.7933,-197.8436 650.2473,-193.2473 654.8436,-202.7933 659.7933,-197.8436"/>
</g>
<!-- 43 -->
<g id="node42" class="node">
<title>43</title>
<ellipse fill="#c1ffc1" stroke="#000000" cx="707" cy="-178" rx="27" ry="18"/>
<text text-anchor="middle" x="707" y="-173.8" font-family="Times,serif" font-size="14.00" fill="#000000">k</text>
</g>
<!-- 41&#45;&gt;43 -->
<g id="edge40" class="edge">
<title>41-&gt;43</title>
<path fill="none" stroke="#000000" d="M707,-231.8314C707,-224.131 707,-214.9743 707,-206.4166"/>
<polygon fill="#000000" stroke="#000000" points="710.5001,-206.4132 707,-196.4133 703.5001,-206.4133 710.5001,-206.4132"/>
</g>
<!-- 45 -->
<g id="node44" class="node">
<title>45</title>
<ellipse fill="#c0c0c0" stroke="#000000" cx="851" cy="-250" rx="27" ry="18"/>
<text text-anchor="middle" x="851" y="-245.8" font-family="Times,serif" font-size="14.00" fill="#000000">+</text>
</g>
<!-- 44&#45;&gt;45 -->
<g id="edge42" class="edge">
<title>44-&gt;45</title>
<path fill="none" stroke="#000000" d="M851,-303.8314C851,-296.131 851,-286.9743 851,-278.4166"/>
<polygon fill="#000000" stroke="#000000" points="854.5001,-278.4132 851,-268.4133 847.5001,-278.4133 854.5001,-278.4132"/>
</g>
<!-- 46 -->
<g id="node45" class="node">
<title>46</title>
<ellipse fill="#c1ffc1" stroke="#000000" cx="779" cy="-178" rx="27" ry="18"/>
<text text-anchor="middle" x="779" y="-173.8" font-family="Times,serif" font-size="14.00" fill="#000000">k</text>
</g>
<!-- 45&#45;&gt;46 -->
<g id="edge43" class="edge">
<title>45-&gt;46</title>
<path fill="none" stroke="#000000" d="M835.7307,-234.7307C825.803,-224.803 812.6847,-211.6847 801.5637,-200.5637"/>
<polygon fill="#000000" stroke="#000000" points="803.7933,-197.8436 794.2473,-193.2473 798.8436,-202.7933 803.7933,-197.8436"/>
</g>
<!-- 47 -->
<g id="node46" class="node">
<title>47</title>
<ellipse fill="#add8e6" stroke="#000000" cx="851" cy="-178" rx="27" ry="18"/>
<text text-anchor="middle" x="851" y="-173.8" font-family="Times,serif" font-size="14.00" fill="#000000">1</text>
</g>
<!-- 45&#45;&gt;47 -->
<g id="edge44" class="edge">
<title>45-&gt;47</title>
<path fill="none" stroke="#000000" d="M851,-231.8314C851,-224.131 851,-214.9743 851,-206.4166"/>
<polygon fill="#000000" stroke="#000000" points="854.5001,-206.4132 851,-196.4133 847.5001,-206.4133 854.5001,-206.4132"/>
</g>
<!-- 49 -->
<g id="node48" class="node">
<title>49</title>
<ellipse fill="#c1ffc1" stroke="#000000" cx="851" cy="-394" rx="27" ry="18"/>
<text text-anchor="middle" x="851" y="-389.8" font-family="Times,serif" font-size="14.00" fill="#000000">fact</text>
</g>
<!-- 48&#45;&gt;49 -->
<g id="edge46" class="edge">
<title>48-&gt;49</title>
<path fill="none" stroke="#000000" d="M830.8132,-447.8314C833.8098,-439.8406 837.3943,-430.2819 840.7057,-421.4514"/>
<polygon fill="#000000" stroke="#000000" points="844.0483,-422.5057 844.2825,-411.9134 837.494,-420.0478 844.0483,-422.5057"/>
</g>
<!-- 51 -->
<g id="node49" class="node">
<title>51</title>
<ellipse fill="none" stroke="#000000" cx="1039" cy="-538" rx="32.4846" ry="18"/>
<text text-anchor="middle" x="1039" y="-533.8" font-family="Times,serif" font-size="14.00" fill="#000000">block</text>
</g>
<!-- 52 -->
<g id="node50" class="node">
<title>52</title>
<ellipse fill="none" stroke="#000000" cx="929" cy="-466" rx="27" ry="18"/>
<text text-anchor="middle" x="929" y="-461.8" font-family="Times,serif" font-size="14.00" fill="#000000">s = </text>
</g>
<!-- 51&#45;&gt;52 -->
<g id="edge47" class="edge">
<title>51-&gt;52</title>
<path fill="none" stroke="#000000" d="M1017.7909,-524.1177C1000.4365,-512.7584 975.7538,-496.6025 956.8157,-484.2067"/>
<polygon fill="#000000" stroke="#000000" points="958.586,-481.1823 948.3022,-478.6341 954.7524,-487.0392 958.586,-481.1823"/>
</g>
<!-- 54 -->
<g id="node52" class="node">
<title>54</title>
<ellipse fill="none" stroke="#000000" cx="1001" cy="-466" rx="27" ry="18"/>
<text text-anchor="middle" x="1001" y="-461.8" font-family="Times,serif" font-size="14.00" fill="#000000">k = </text>
</g>
<!-- 51&#45;&gt;54 -->
<g id="edge49" class="edge">
<title>51-&gt;54</title>
<path fill="none" stroke="#000000" d="M1029.8013,-520.5708C1025.3203,-512.0807 1019.8379,-501.6929 1014.8634,-492.2674"/>
<polygon fill="#000000" stroke="#000000" points="1017.877,-490.4789 1010.114,-483.2687 1011.6863,-493.7462 1017.877,-490.4789"/>
</g>
<!-- 56 -->
<g id="node54" class="node">
<title>56</title>
<ellipse fill="#ffb6c1" stroke="#000000" cx="1078" cy="-466" rx="32.4808" ry="18"/>
<text text-anchor="middle" x="1078" y="-461.8" font-family="Times,serif" font-size="14.00" fill="#000000">while</text>
</g>
<!-- 51&#45;&gt;56 -->
<g id="edge51" class="edge">
<title>51-&gt;56</title>
<path fill="none" stroke="#000000" d="M1048.4408,-520.5708C1053.0396,-512.0807 1058.6664,-501.6929 1063.7718,-492.2674"/>
<polygon fill="#000000" stroke="#000000" points="1066.9608,-493.7286 1068.6461,-483.2687 1060.8057,-490.3946 1066.9608,-493.7286"/>
</g>
<!-- 69 -->
<g id="node67" class="node">
<title>69</title>
<ellipse fill="#ffb6c1" stroke="#000000" cx="1309" cy="-466" rx="27" ry="18"/>
<text text-anchor="middle" x="1309" y="-461.8" font-family="Times,serif" font-size="14.00" fill="#000000">if</text>
</g>
<!-- 51&#45;&gt;69 -->
<g id="edge64" class="edge">
<title>51-&gt;69</title>
<path fill="none" stroke="#000000" d="M1068.4087,-530.1577C1118.485,-516.804 1220.0946,-489.7081 1273.8401,-475.376"/>
<polygon fill="#000000" stroke="#000000" points="1274.848,-478.7296 1283.6085,-472.7711 1273.0443,-471.9659 1274.848,-478.7296"/>
</g>
<!-- 53 -->
<g id="node51" class="node">
<title>53</title>
<ellipse fill="#add8e6" stroke="#000000" cx="929" cy="-394" rx="27" ry="18"/>
<text text-anchor="middle" x="929" y="-389.8" font-family="Times,serif" font-size="14.00" fill="#000000">0</text>
</g>
<!-- 52&#45;&gt;53 -->
<g id="edge48" class="edge">
<title>52-&gt;53</title>
<path fill="none" stroke="#000000" d="M929,-447.8314C929,-440.131 929,-430.9743 929,-422.4166"/>
<polygon fill="#000000" stroke="#000000" points="932.5001,-422.4132 929,-412.4133 925.5001,-422.4133 932.5001,-422.4132"/>
</g>
<!-- 55 -->
<g id="node53" class="node">
<title>55</title>
<ellipse fill="#add8e6" stroke="#000000" cx="1001" cy="-394" rx="27" ry="18"/>
<text text-anchor="middle" x="1001" y="-389.8" font-family="Times,serif" font-size="14.00" fill="#000000">1</text>
</g>
<!-- 54&#45;&gt;55 -->
<g id="edge50" class="edge">
<title>54-&gt;55</title>
<path fill="none" stroke="#000000" d="M1001,-447.8314C1001,-440.131 1001,-430.9743 1001,-422.4166"/>
<polygon fill="#000000" stroke="#000000" points="1004.5001,-422.4132 1001,-412.4133 997.5001,-422.4133 1004.5001,-422.4132"/>
</g>
<!-- 57 -->
<g id="node55" class="node">
<title>57</title>
<ellipse fill="#c0c0c0" stroke="#000000" cx="1073" cy="-394" rx="27" ry="18"/>
<text text-anchor="middle" x="1073" y="-389.8" font-family="Times,serif" font-size="14.00" fill="#000000">&lt;=</text>
</g>
<!-- 56&#45;&gt;57 -->
<g id="edge52" class="edge">
<title>56-&gt;57</title>
<path fill="none" stroke="#000000" d="M1076.7383,-447.8314C1076.2035,-440.131 1075.5677,-430.9743 1074.9734,-422.4166"/>
<polygon fill="#000000" stroke="#000000" points="1078.4632,-422.1467 1074.2787,-412.4133 1071.48,-422.6317 1078.4632,-422.1467"/>
</g>
<!-- 58 -->
<g id="node56" class="node">
<title>58</title>
<ellipse fill="none" stroke="#000000" cx="1150" cy="-394" rx="32.4846" ry="18"/>
<text text-anchor="middle" x="1150" y="-389.8" font-family="Times,serif" font-size="14.00" fill="#000000">block</text>
</g>
<!-- 56&#45;&gt;58 -->
<g id="edge53" class="edge">
<title>56-&gt;58</title>
<path fill="none" stroke="#000000" d="M1093.9791,-450.0209C1103.6736,-440.3264 1116.2082,-427.7918 1126.9619,-417.0381"/>
<polygon fill="#000000" stroke="#000000" points="1129.4693,-419.4804 1134.0655,-409.9345 1124.5196,-414.5307 1129.4693,-419.4804"/>
</g>
<!-- 59 -->
<g id="node57" class="node">
<title>59</title>
<ellipse fill="#c1ffc1" stroke="#000000" cx="929" cy="-322" rx="27" ry="18"/>
<text text-anchor="middle" x="929" y="-317.8" font-family="Times,serif" font-size="14.00" fill="#000000">k</text>
</g>
<!-- 57&#45;&gt;59 -->
<g id="edge54" class="edge">
<title>57-&gt;59</title>
<path fill="none" stroke="#000000" d="M1051.1295,-383.0647C1026.7778,-370.8889 987.238,-351.119 959.7715,-337.3858"/>
<polygon fill="#000000" stroke="#000000" points="961.114,-334.1439 950.6045,-332.8022 957.9835,-340.4049 961.114,-334.1439"/>
</g>
<!-- 60 -->
<g id="node58" class="node">
<title>60</title>
<ellipse fill="#c1ffc1" stroke="#000000" cx="1001" cy="-322" rx="27" ry="18"/>
<text text-anchor="middle" x="1001" y="-317.8" font-family="Times,serif" font-size="14.00" fill="#000000">n</text>
</g>
<!-- 57&#45;&gt;60 -->
<g id="edge55" class="edge">
<title>57-&gt;60</title>
<path fill="none" stroke="#000000" d="M1057.7307,-378.7307C1047.803,-368.803 1034.6847,-355.6847 1023.5637,-344.5637"/>
<polygon fill="#000000" stroke="#000000" points="1025.7933,-341.8436 1016.2473,-337.2473 1020.8436,-346.7933 1025.7933,-341.8436"/>
</g>
<!-- 61 -->
<g id="node59" class="node">
<title>61</title>
<ellipse fill="none" stroke="#000000" cx="1083" cy="-322" rx="37.3137" ry="18"/>
<text text-anchor="middle" x="1083" y="-317.8" font-family="Times,serif" font-size="14.00" fill="#000000">sum = </text>
</g>
<!-- 58&#45;&gt;61 -->
<g id="edge56" class="edge">
<title>58-&gt;61</title>
<path fill="none" stroke="#000000" d="M1134.7967,-377.6621C1126.182,-368.4046 1115.2389,-356.6447 1105.6327,-346.3217"/>
<polygon fill="#000000" stroke="#000000" points="1107.9827,-343.7093 1098.6081,-338.7729 1102.8582,-348.4779 1107.9827,-343.7093"/>
</g>
<!-- 65 -->
<g id="node63" class="node">
<title>65</title>
<ellipse fill="none" stroke="#000000" cx="1165" cy="-322" rx="27" ry="18"/>
<text text-anchor="middle" x="1165" y="-317.8" font-family="Times,serif" font-size="14.00" fill="#000000">k = </text>
</g>
<!-- 58&#45;&gt;65 -->
<g id="edge60" class="edge">
<title>58-&gt;65</title>
<path fill="none" stroke="#000000" d="M1153.7851,-375.8314C1155.432,-367.9266 1157.3985,-358.4872 1159.2216,-349.7365"/>
<polygon fill="#000000" stroke="#000000" points="1162.6548,-350.4171 1161.268,-339.9134 1155.802,-348.9894 1162.6548,-350.4171"/>
</g>
<!-- 62 -->
<g id="node60" class="node">
<title>62</title>
<ellipse fill="#c0c0c0" stroke="#000000" cx="1083" cy="-250" rx="27" ry="18"/>
<text text-anchor="middle" x="1083" y="-245.8" font-family="Times,serif" font-size="14.00" fill="#000000">+</text>
</g>
<!-- 61&#45;&gt;62 -->
<g id="edge57" class="edge">
<title>61-&gt;62</title>
<path fill="none" stroke="#000000" d="M1083,-303.8314C1083,-296.131 1083,-286.9743 1083,-278.4166"/>
<polygon fill="#000000" stroke="#000000" points="1086.5001,-278.4132 1083,-268.4133 1079.5001,-278.4133 1086.5001,-278.4132"/>
</g>
<!-- 63 -->
<g id="node61" class="node">
<title>63</title>
<ellipse fill="#c1ffc1" stroke="#000000" cx="1012" cy="-178" rx="27.2661" ry="18"/>
<text text-anchor="middle" x="1012" y="-173.8" font-family="Times,serif" font-size="14.00" fill="#000000">sum</text>
</g>
<!-- 62&#45;&gt;63 -->
<g id="edge58" class="edge">
<title>62-&gt;63</title>
<path fill="none" stroke="#000000" d="M1067.9427,-234.7307C1058.153,-224.803 1045.2169,-211.6847 1034.2503,-200.5637"/>
<polygon fill="#000000" stroke="#000000" points="1036.5492,-197.9102 1027.0356,-193.2473 1031.5649,-202.8252 1036.5492,-197.9102"/>
</g>
<!-- 64 -->
<g id="node62" class="node">
<title>64</title>
<ellipse fill="#c1ffc1" stroke="#000000" cx="1084" cy="-178" rx="27" ry="18"/>
<text text-anchor="middle" x="1084" y="-173.8" font-family="Times,serif" font-size="14.00" fill="#000000">k</text>
</g>
<!-- 62&#45;&gt;64 -->
<g id="edge59" class="edge">
<title>62-&gt;64</title>
<path fill="none" stroke="#000000" d="M1083.2523,-231.8314C1083.3593,-224.131 1083.4865,-214.9743 1083.6053,-206.4166"/>
<polygon fill="#000000" stroke="#000000" points="1087.1049,-206.4609 1083.7443,-196.4133 1080.1056,-206.3637 1087.1049,-206.4609"/>
</g>
<!-- 66 -->
<g id="node64" class="node">
<title>66</title>
<ellipse fill="#c0c0c0" stroke="#000000" cx="1165" cy="-250" rx="27" ry="18"/>
<text text-anchor="middle" x="1165" y="-245.8" font-family="Times,serif" font-size="14.00" fill="#000000">+</text>
</g>
<!-- 65&#45;&gt;66 -->
<g id="edge61" class="edge">
<title>65-&gt;66</title>
<path fill="none" stroke="#000000" d="M1165,-303.8314C1165,-296.131 1165,-286.9743 1165,-278.4166"/>
<polygon fill="#000000" stroke="#000000" points="1168.5001,-278.4132 1165,-268.4133 1161.5001,-278.4133 1168.5001,-278.4132"/>
</g>
<!-- 67 -->
<g id="node65" class="node">
<title>67</title>
<ellipse fill="#c1ffc1" stroke="#000000" cx="1161" cy="-178" rx="27" ry="18"/>
<text text-anchor="middle" x="1161" y="-173.8" font-family="Times,serif" font-size="14.00" fill="#000000">k</text>
</g>
<!-- 66&#45;&gt;67 -->
<g id="edge62" class="edge">
<title>66-&gt;67</title>
<path fill="none" stroke="#000000" d="M1163.9906,-231.8314C1163.5628,-224.131 1163.0541,-214.9743 1162.5787,-206.4166"/>
<polygon fill="#000000" stroke="#000000" points="1166.0724,-206.2037 1162.023,-196.4133 1159.0831,-206.592 1166.0724,-206.2037"/>
</g>
<!-- 68 -->
<g id="node66" class="node">
<title>68</title>
<ellipse fill="#add8e6" stroke="#000000" cx="1233" cy="-178" rx="27" ry="18"/>
<text text-anchor="middle" x="1233" y="-173.8" font-family="Times,serif" font-size="14.00" fill="#000000">1</text>
</g>
<!-- 66&#45;&gt;68 -->
<g id="edge63" class="edge">
<title>66-&gt;68</title>
<path fill="none" stroke="#000000" d="M1179.4211,-234.7307C1188.7972,-224.803 1201.1867,-211.6847 1211.6899,-200.5637"/>
<polygon fill="#000000" stroke="#000000" points="1214.278,-202.9207 1218.5997,-193.2473 1209.1889,-198.1143 1214.278,-202.9207"/>
</g>
<!-- 70 -->
<g id="node68" class="node">
<title>70</title>
<ellipse fill="#c0c0c0" stroke="#000000" cx="1268" cy="-394" rx="27" ry="18"/>
<text text-anchor="middle" x="1268" y="-389.8" font-family="Times,serif" font-size="14.00" fill="#000000">&lt;&gt;</text>
</g>
<!-- 69&#45;&gt;70 -->
<g id="edge65" class="edge">
<title>69-&gt;70</title>
<path fill="none" stroke="#000000" d="M1299.2836,-448.937C1294.3307,-440.2393 1288.2039,-429.4799 1282.6887,-419.7948"/>
<polygon fill="#000000" stroke="#000000" points="1285.6366,-417.8984 1277.6467,-410.9405 1279.5537,-421.3623 1285.6366,-417.8984"/>
</g>
<!-- 71 -->
<g id="node69" class="node">
<title>71</title>
<ellipse fill="none" stroke="#000000" cx="1350" cy="-394" rx="37.3137" ry="18"/>
<text text-anchor="middle" x="1350" y="-389.8" font-family="Times,serif" font-size="14.00" fill="#000000">sum = </text>
</g>
<!-- 69&#45;&gt;71 -->
<g id="edge66" class="edge">
<title>69-&gt;71</title>
<path fill="none" stroke="#000000" d="M1318.7164,-448.937C1323.5975,-440.3654 1329.6188,-429.7914 1335.0711,-420.2165"/>
<polygon fill="#000000" stroke="#000000" points="1338.1615,-421.8625 1340.0685,-411.4407 1332.0786,-418.3986 1338.1615,-421.8625"/>
</g>
<!-- 82 -->
<g id="node80" class="node">
<title>82</title>
<ellipse fill="none" stroke="#000000" cx="1443" cy="-394" rx="37.3137" ry="18"/>
<text text-anchor="middle" x="1443" y="-389.8" font-family="Times,serif" font-size="14.00" fill="#000000">sum = </text>
</g>
<!-- 69&#45;&gt;82 -->
<g id="edge77" class="edge">
<title>69-&gt;82</title>
<path fill="none" stroke="#000000" d="M1330.2327,-454.5914C1351.3036,-443.2697 1383.9429,-425.7322 1408.6952,-412.4324"/>
<polygon fill="#000000" stroke="#000000" points="1410.6027,-415.3808 1417.755,-407.5645 1407.2895,-409.2145 1410.6027,-415.3808"/>
</g>
<!-- 72 -->
<g id="node70" class="node">
<title>72</title>
<ellipse fill="#c1ffc1" stroke="#000000" cx="1237" cy="-322" rx="27" ry="18"/>
<text text-anchor="middle" x="1237" y="-317.8" font-family="Times,serif" font-size="14.00" fill="#000000">s</text>
</g>
<!-- 70&#45;&gt;72 -->
<g id="edge67" class="edge">
<title>70-&gt;72</title>
<path fill="none" stroke="#000000" d="M1260.4958,-376.5708C1256.905,-368.2309 1252.5258,-358.0598 1248.5254,-348.7686"/>
<polygon fill="#000000" stroke="#000000" points="1251.7119,-347.319 1244.5426,-339.5182 1245.2825,-350.0872 1251.7119,-347.319"/>
</g>
<!-- 73 -->
<g id="node71" class="node">
<title>73</title>
<ellipse fill="#c0c0c0" stroke="#000000" cx="1309" cy="-322" rx="27" ry="18"/>
<text text-anchor="middle" x="1309" y="-317.8" font-family="Times,serif" font-size="14.00" fill="#000000">/</text>
</g>
<!-- 70&#45;&gt;73 -->
<g id="edge68" class="edge">
<title>70-&gt;73</title>
<path fill="none" stroke="#000000" d="M1277.7164,-376.937C1282.6693,-368.2393 1288.7961,-357.4799 1294.3113,-347.7948"/>
<polygon fill="#000000" stroke="#000000" points="1297.4463,-349.3623 1299.3533,-338.9405 1291.3634,-345.8984 1297.4463,-349.3623"/>
</g>
<!-- 81 -->
<g id="node79" class="node">
<title>81</title>
<ellipse fill="#add8e6" stroke="#000000" cx="1381" cy="-322" rx="27" ry="18"/>
<text text-anchor="middle" x="1381" y="-317.8" font-family="Times,serif" font-size="14.00" fill="#000000">1</text>
</g>
<!-- 71&#45;&gt;81 -->
<g id="edge76" class="edge">
<title>71-&gt;81</title>
<path fill="none" stroke="#000000" d="M1357.6629,-376.2022C1361.218,-367.9452 1365.5196,-357.9545 1369.4563,-348.8112"/>
<polygon fill="#000000" stroke="#000000" points="1372.7922,-349.9136 1373.5322,-339.3446 1366.3629,-347.1453 1372.7922,-349.9136"/>
</g>
<!-- 74 -->
<g id="node72" class="node">
<title>74</title>
<ellipse fill="#c0c0c0" stroke="#000000" cx="1308" cy="-250" rx="27" ry="18"/>
<text text-anchor="middle" x="1308" y="-245.8" font-family="Times,serif" font-size="14.00" fill="#000000">*</text>
</g>
<!-- 73&#45;&gt;74 -->
<g id="edge69" class="edge">
<title>73-&gt;74</title>
<path fill="none" stroke="#000000" d="M1308.7477,-303.8314C1308.6407,-296.131 1308.5135,-286.9743 1308.3947,-278.4166"/>
<polygon fill="#000000" stroke="#000000" points="1311.8944,-278.3637 1308.2557,-268.4133 1304.8951,-278.4609 1311.8944,-278.3637"/>
</g>
<!-- 75 -->
<g id="node73" class="node">
<title>75</title>
<ellipse fill="#add8e6" stroke="#000000" cx="1380" cy="-250" rx="27" ry="18"/>
<text text-anchor="middle" x="1380" y="-245.8" font-family="Times,serif" font-size="14.00" fill="#000000">2</text>
</g>
<!-- 73&#45;&gt;75 -->
<g id="edge70" class="edge">
<title>73-&gt;75</title>
<path fill="none" stroke="#000000" d="M1324.0573,-306.7307C1333.847,-296.803 1346.7831,-283.6847 1357.7497,-272.5637"/>
<polygon fill="#000000" stroke="#000000" points="1360.4351,-274.8252 1364.9644,-265.2473 1355.4508,-269.9102 1360.4351,-274.8252"/>
</g>
<!-- 76 -->
<g id="node74" class="node">
<title>76</title>
<ellipse fill="#c1ffc1" stroke="#000000" cx="1307" cy="-178" rx="27" ry="18"/>
<text text-anchor="middle" x="1307" y="-173.8" font-family="Times,serif" font-size="14.00" fill="#000000">n</text>
</g>
<!-- 74&#45;&gt;76 -->
<g id="edge71" class="edge">
<title>74-&gt;76</title>
<path fill="none" stroke="#000000" d="M1307.7477,-231.8314C1307.6407,-224.131 1307.5135,-214.9743 1307.3947,-206.4166"/>
<polygon fill="#000000" stroke="#000000" points="1310.8944,-206.3637 1307.2557,-196.4133 1303.8951,-206.4609 1310.8944,-206.3637"/>
</g>
<!-- 77 -->
<g id="node75" class="node">
<title>77</title>
<ellipse fill="#c0c0c0" stroke="#000000" cx="1379" cy="-178" rx="27" ry="18"/>
<text text-anchor="middle" x="1379" y="-173.8" font-family="Times,serif" font-size="14.00" fill="#000000">( )</text>
</g>
<!-- 74&#45;&gt;77 -->
<g id="edge72" class="edge">
<title>74-&gt;77</title>
<path fill="none" stroke="#000000" d="M1323.0573,-234.7307C1332.847,-224.803 1345.7831,-211.6847 1356.7497,-200.5637"/>
<polygon fill="#000000" stroke="#000000" points="1359.4351,-202.8252 1363.9644,-193.2473 1354.4508,-197.9102 1359.4351,-202.8252"/>
</g>
<!-- 78 -->
<g id="node76" class="node">
<title>78</title>
<ellipse fill="#c0c0c0" stroke="#000000" cx="1379" cy="-106" rx="27" ry="18"/>
<text text-anchor="middle" x="1379" y="-101.8" font-family="Times,serif" font-size="14.00" fill="#000000">+</text>
</g>
<!-- 77&#45;&gt;78 -->
<g id="edge73" class="edge">
<title>77-&gt;78</title>
<path fill="none" stroke="#000000" d="M1379,-159.8314C1379,-152.131 1379,-142.9743 1379,-134.4166"/>
<polygon fill="#000000" stroke="#000000" points="1382.5001,-134.4132 1379,-124.4133 1375.5001,-134.4133 1382.5001,-134.4132"/>
</g>
<!-- 79 -->
<g id="node77" class="node">
<title>79</title>
<ellipse fill="#c1ffc1" stroke="#000000" cx="1343" cy="-34" rx="27" ry="18"/>
<text text-anchor="middle" x="1343" y="-29.8" font-family="Times,serif" font-size="14.00" fill="#000000">n</text>
</g>
<!-- 78&#45;&gt;79 -->
<g id="edge74" class="edge">
<title>78-&gt;79</title>
<path fill="none" stroke="#000000" d="M1370.2854,-88.5708C1366.0403,-80.0807 1360.8464,-69.6929 1356.1337,-60.2674"/>
<polygon fill="#000000" stroke="#000000" points="1359.237,-58.6477 1351.6343,-51.2687 1352.976,-61.7782 1359.237,-58.6477"/>
</g>
<!-- 80 -->
<g id="node78" class="node">
<title>80</title>
<ellipse fill="#add8e6" stroke="#000000" cx="1415" cy="-34" rx="27" ry="18"/>
<text text-anchor="middle" x="1415" y="-29.8" font-family="Times,serif" font-size="14.00" fill="#000000">1</text>
</g>
<!-- 78&#45;&gt;80 -->
<g id="edge75" class="edge">
<title>78-&gt;80</title>
<path fill="none" stroke="#000000" d="M1387.7146,-88.5708C1391.9597,-80.0807 1397.1536,-69.6929 1401.8663,-60.2674"/>
<polygon fill="#000000" stroke="#000000" points="1405.024,-61.7782 1406.3657,-51.2687 1398.763,-58.6477 1405.024,-61.7782"/>
</g>
<!-- 83 -->
<g id="node81" class="node">
<title>83</title>
<ellipse fill="#c1ffc1" stroke="#000000" cx="1453" cy="-322" rx="27" ry="18"/>
<text text-anchor="middle" x="1453" y="-317.8" font-family="Times,serif" font-size="14.00" fill="#000000">s</text>
</g>
<!-- 82&#45;&gt;83 -->
<g id="edge78" class="edge">
<title>82-&gt;83</title>
<path fill="none" stroke="#000000" d="M1445.5234,-375.8314C1446.5929,-368.131 1447.8647,-358.9743 1449.0532,-350.4166"/>
<polygon fill="#000000" stroke="#000000" points="1452.5336,-350.7997 1450.4426,-340.4133 1445.6001,-349.8367 1452.5336,-350.7997"/>
</g>
</g>
</svg>